<?xml version="1.0" standalone="no"?>
<!DOCTYPE svg PUBLIC "-//W3C//DTD SVG 20010904//EN"
 "http://www.w3.org/TR/2001/REC-SVG-20010904/DTD/svg10.dtd">
<svg version="1.0" xmlns="http://www.w3.org/2000/svg"
 width="75.000000pt" height="75.000000pt" viewBox="0 0 75.000000 75.000000"
 preserveAspectRatio="xMidYMid meet">

<g transform="translate(0.000000,75.000000) scale(0.100000,-0.100000)"
fill="#000000" stroke="none">
<path d="M386 658 c-48 -47 -66 -93 -66 -169 0 -37 -6 -52 -32 -82 -19 -21
-48 -40 -68 -45 -27 -6 -39 -17 -53 -45 -9 -20 -24 -37 -32 -37 -32 0 -48 -46
-40 -116 8 -75 35 -114 79 -114 32 0 61 27 234 223 30 35 36 37 91 37 48 0 65
5 98 29 93 68 109 200 36 299 -34 45 -72 62 -142 62 -58 0 -63 -2 -105 -42z
m205 -24 c43 -41 59 -76 59 -129 0 -54 -16 -88 -60 -130 -28 -27 -38 -30 -97
-31 l-66 -1 -119 -131 c-65 -73 -123 -132 -127 -132 -5 0 -19 8 -31 18 -30 25
-40 110 -15 135 9 9 25 17 35 17 14 0 21 10 26 35 5 29 12 37 35 42 16 3 49
27 78 57 47 50 49 55 44 98 -7 57 10 108 45 143 37 38 59 45 115 41 36 -2 55
-10 78 -32z"/>
<path d="M467 572 c-36 -40 -9 -112 43 -112 38 0 60 24 60 64 0 58 -66 89
-103 48z m69 -37 c7 -18 -12 -45 -32 -45 -15 0 -28 35 -19 50 9 15 45 12 51
-5z"/>
</g>
</svg>
