<?xml version="1.0" standalone="no"?>
<!DOCTYPE svg PUBLIC "-//W3C//DTD SVG 20010904//EN"
 "http://www.w3.org/TR/2001/REC-SVG-20010904/DTD/svg10.dtd">
<svg version="1.0" xmlns="http://www.w3.org/2000/svg"
 width="75.000000pt" height="75.000000pt" viewBox="0 0 75.000000 75.000000"
 preserveAspectRatio="xMidYMid meet">

<g transform="translate(0.000000,75.000000) scale(0.100000,-0.100000)"
fill="#000000" stroke="none">
<path d="M130 680 c-54 -13 -71 -42 -68 -114 4 -76 21 -76 28 0 7 70 23 84
102 84 58 0 68 6 46 28 -13 13 -55 14 -108 2z"/>
<path d="M532 679 c-37 -14 -15 -29 44 -29 74 0 94 -20 94 -95 0 -42 3 -55 15
-55 23 0 20 117 -3 148 -26 34 -104 50 -150 31z"/>
<path d="M220 461 c0 -33 16 -49 32 -33 14 14 1 62 -17 62 -10 0 -15 -10 -15
-29z"/>
<path d="M387 483 c-4 -3 -7 -35 -7 -69 0 -35 -4 -66 -10 -69 -15 -9 -12 -35
4 -35 22 0 34 22 40 78 8 75 -4 118 -27 95z"/>
<path d="M504 476 c-9 -23 0 -51 16 -51 10 0 15 10 15 29 0 32 -21 47 -31 22z"/>
<path d="M264 238 c-4 -6 4 -21 20 -35 22 -18 39 -23 87 -23 65 0 139 29 139
55 0 19 -34 19 -50 0 -23 -28 -81 -38 -122 -21 -20 9 -39 20 -43 26 -8 13 -22
13 -31 -2z"/>
<path d="M66 223 c-11 -11 -6 -117 7 -133 25 -33 62 -50 107 -50 25 0 51 4 59
9 26 16 0 31 -55 31 -72 0 -94 21 -94 89 0 47 -9 68 -24 54z"/>
<path d="M670 172 c0 -71 -19 -92 -83 -92 -61 0 -91 -14 -67 -30 27 -19 122
-1 153 28 23 22 27 33 27 84 0 45 -3 58 -15 58 -11 0 -15 -12 -15 -48z"/>
</g>
</svg>
