<?xml version="1.0" standalone="no"?>
<!DOCTYPE svg PUBLIC "-//W3C//DTD SVG 20010904//EN"
 "http://www.w3.org/TR/2001/REC-SVG-20010904/DTD/svg10.dtd">
<svg version="1.0" xmlns="http://www.w3.org/2000/svg"
 width="75.000000pt" height="75.000000pt" viewBox="0 0 75.000000 75.000000"
 preserveAspectRatio="xMidYMid meet">

<g transform="translate(0.000000,75.000000) scale(0.100000,-0.100000)"
fill="#000000" stroke="none">
<path d="M310 691 c0 -5 -15 -12 -32 -15 -89 -17 -173 -124 -184 -233 -10 -92
15 -163 79 -228 134 -133 336 -105 433 62 36 60 44 159 19 234 -22 65 -93 141
-151 159 -21 7 -43 16 -48 21 -13 12 -116 12 -116 0z m158 -48 c43 -18 103
-79 126 -128 23 -47 26 -133 7 -189 -18 -51 -85 -124 -136 -147 -176 -81 -384
91 -344 283 20 93 101 176 192 199 39 9 110 1 155 -18z"/>
<path d="M244 528 c-4 -6 18 -35 53 -70 l61 -58 66 0 c36 0 66 4 66 9 0 14
-27 21 -76 21 -41 0 -49 5 -99 55 -58 59 -60 61 -71 43z"/>
</g>
</svg>
