<?xml version="1.0" standalone="no"?>
<!DOCTYPE svg PUBLIC "-//W3C//DTD SVG 20010904//EN"
 "http://www.w3.org/TR/2001/REC-SVG-20010904/DTD/svg10.dtd">
<svg version="1.0" xmlns="http://www.w3.org/2000/svg"
 width="75.000000pt" height="75.000000pt" viewBox="0 0 75.000000 75.000000"
 preserveAspectRatio="xMidYMid meet">

<g transform="translate(0.000000,75.000000) scale(0.100000,-0.100000)"
fill="#000000" stroke="none">
<path d="M351 717 c-5 -13 -29 -32 -60 -45 -96 -44 -141 -127 -141 -258 0 -60
-8 -81 -52 -134 -33 -40 -35 -59 -10 -90 15 -19 32 -24 87 -29 65 -6 69 -7 76
-35 5 -16 18 -39 30 -52 19 -21 32 -24 91 -24 61 0 72 3 92 25 13 14 26 39 30
55 5 27 10 30 43 32 36 1 64 3 90 7 21 2 43 32 43 59 0 16 -13 43 -30 64 -41
49 -50 78 -50 157 0 113 -57 199 -153 230 -24 8 -42 22 -47 37 -12 30 -28 31
-39 1z m87 -72 c85 -36 122 -100 122 -210 0 -81 13 -117 56 -164 14 -14 23
-35 22 -46 -3 -19 -12 -20 -265 -23 -259 -2 -263 -2 -263 18 0 11 16 43 35 71
32 46 35 58 35 119 0 113 38 187 120 230 43 23 89 25 138 5z m3 -485 c24 -14
24 -35 -1 -60 -29 -29 -106 -28 -137 2 -27 25 -28 31 -7 52 18 19 114 22 145
6z"/>
</g>
</svg>
