<?xml version="1.0" standalone="no"?>
<!DOCTYPE svg PUBLIC "-//W3C//DTD SVG 20010904//EN"
 "http://www.w3.org/TR/2001/REC-SVG-20010904/DTD/svg10.dtd">
<svg version="1.0" xmlns="http://www.w3.org/2000/svg"
 width="75.000000pt" height="75.000000pt" viewBox="0 0 75.000000 75.000000"
 preserveAspectRatio="xMidYMid meet">

<g transform="translate(0.000000,75.000000) scale(0.100000,-0.100000)"
fill="#000000" stroke="none">
<path d="M101 664 c-20 -26 -21 -38 -21 -315 0 -241 2 -290 15 -302 22 -22 89
-31 117 -16 22 13 21 14 -25 19 -27 3 -53 13 -58 21 -5 7 -9 139 -9 291 0 264
1 278 19 288 28 14 234 13 249 -2 7 -7 12 -42 12 -85 0 -103 12 -113 129 -113
95 0 104 -4 116 -53 12 -47 35 -33 35 21 0 49 -11 66 -76 121 -16 14 -56 48
-89 76 -33 29 -70 57 -82 64 -13 7 -78 11 -167 11 -144 0 -145 0 -165 -26z
m422 -100 c46 -36 62 -58 51 -75 -8 -13 -108 -11 -122 3 -7 7 -12 34 -12 60 0
60 17 63 83 12z"/>
<path d="M408 278 c-10 -10 -18 -24 -18 -31 0 -7 -13 -26 -30 -42 -16 -16 -30
-33 -30 -37 0 -5 16 -31 35 -59 19 -28 35 -55 35 -59 0 -16 45 -24 115 -21 93
3 99 5 114 46 7 19 21 40 32 45 26 14 24 52 -4 87 -12 15 -28 40 -35 56 -6 15
-17 28 -24 28 -7 1 -49 2 -92 3 -65 2 -83 -1 -98 -16z m180 -46 c9 -15 25 -35
35 -44 9 -10 17 -22 17 -27 0 -5 -8 -17 -17 -27 -10 -10 -25 -29 -33 -43 -14
-22 -23 -25 -82 -26 -65 -2 -67 -1 -79 27 -6 16 -20 33 -30 39 -25 13 -24 32
4 66 13 15 26 36 30 45 5 13 19 16 72 16 60 0 68 -3 83 -26z"/>
</g>
</svg>
