<?xml version="1.0" standalone="no"?>
<!DOCTYPE svg PUBLIC "-//W3C//DTD SVG 20010904//EN"
 "http://www.w3.org/TR/2001/REC-SVG-20010904/DTD/svg10.dtd">
<svg version="1.0" xmlns="http://www.w3.org/2000/svg"
 width="75.000000pt" height="75.000000pt" viewBox="0 0 75.000000 75.000000"
 preserveAspectRatio="xMidYMid meet">

<g transform="translate(0.000000,75.000000) scale(0.100000,-0.100000)"
fill="#000000" stroke="none">
<path d="M300 701 c-99 -22 -191 -96 -234 -187 -29 -62 -37 -167 -17 -241 25
-94 129 -195 227 -221 164 -44 330 27 404 174 31 60 35 76 34 144 -1 133 -74
250 -190 305 -57 27 -164 39 -224 26z m139 -86 c62 -67 55 -79 -52 -85 -129
-7 -143 7 -79 84 50 60 76 61 131 1z m117 3 c37 -25 49 -39 49 -58 0 -21 -5
-26 -32 -28 -28 -3 -34 2 -57 41 -26 44 -33 77 -17 77 5 0 31 -15 57 -32z
m-296 8 c0 -26 -42 -87 -66 -97 -65 -24 -74 36 -12 81 44 32 78 39 78 16z
m-83 -138 c11 -19 11 -211 0 -225 -16 -22 -75 -16 -91 10 -22 33 -30 118 -16
163 18 54 28 64 66 64 18 0 36 -6 41 -12z m336 -7 c16 -16 21 -138 8 -188 -10
-37 -16 -43 -46 -49 -53 -10 -222 -1 -236 13 -31 31 -29 204 3 227 21 15 255
13 271 -3z m138 0 c20 -16 24 -30 27 -93 5 -102 -12 -138 -68 -138 -28 0 -40
5 -44 18 -3 13 -1 182 3 214 1 6 24 14 47 17 7 0 22 -8 35 -18z m-444 -276
c23 -16 63 -75 63 -94 0 -20 -34 -11 -82 22 -32 21 -48 39 -48 53 0 37 29 46
67 19z m268 -17 c-4 -13 -23 -40 -43 -60 -49 -51 -76 -50 -124 8 -55 65 -46
74 74 74 98 0 99 0 93 -22z m135 0 c0 -28 -90 -94 -115 -85 -22 9 -19 19 21
65 27 32 43 42 65 42 23 0 29 -4 29 -22z"/>
</g>
</svg>
