<svg width="28" height="28" viewBox="0 0 28 28" fill="none" xmlns="http://www.w3.org/2000/svg">
<rect x="4" y="4" width="8" height="8" fill="none" stroke="#6B7280" stroke-width="1.5"/>
<rect x="6" y="6" width="4" height="4" fill="#6B7280"/>
<rect x="16" y="4" width="8" height="8" fill="none" stroke="#6B7280" stroke-width="1.5"/>
<rect x="18" y="6" width="4" height="4" fill="#6B7280"/>
<rect x="4" y="16" width="8" height="8" fill="none" stroke="#6B7280" stroke-width="1.5"/>
<rect x="6" y="18" width="4" height="4" fill="#6B7280"/>
<rect x="14" y="14" width="2" height="2" fill="#6B7280"/>
<rect x="18" y="14" width="2" height="2" fill="#6B7280"/>
<rect x="22" y="14" width="2" height="2" fill="#6B7280"/>
<rect x="14" y="18" width="2" height="2" fill="#6B7280"/>
<rect x="18" y="18" width="2" height="2" fill="#6B7280"/>
<rect x="22" y="18" width="2" height="2" fill="#6B7280"/>
<rect x="14" y="22" width="2" height="2" fill="#6B7280"/>
<rect x="18" y="22" width="2" height="2" fill="#6B7280"/>
<rect x="22" y="22" width="2" height="2" fill="#6B7280"/>
</svg>